<svg width="33" height="33" viewBox="0 0 33 33" fill="none" xmlns="http://www.w3.org/2000/svg">
<path d="M27.5 6.5H5.5C4.94772 6.5 4.5 6.94772 4.5 7.5V25.5C4.5 26.0523 4.94772 26.5 5.5 26.5H27.5C28.0523 26.5 28.5 26.0523 28.5 25.5V7.5C28.5 6.94772 28.0523 6.5 27.5 6.5Z" stroke="#232E52" stroke-width="2" stroke-linecap="round" stroke-linejoin="round"/>
<path d="M4.5 21.5L10.7875 15.2125C10.8805 15.118 10.9915 15.043 11.1138 14.9918C11.2361 14.9406 11.3674 14.9142 11.5 14.9142C11.6326 14.9142 11.7639 14.9406 11.8862 14.9918C12.0085 15.043 12.1195 15.118 12.2125 15.2125L17.7875 20.7875C17.8805 20.882 17.9915 20.957 18.1138 21.0082C18.2361 21.0595 18.3674 21.0858 18.5 21.0858C18.6326 21.0858 18.7639 21.0595 18.8862 21.0082C19.0085 20.957 19.1195 20.882 19.2125 20.7875L21.7875 18.2125C21.8805 18.118 21.9915 18.043 22.1138 17.9918C22.2361 17.9406 22.3674 17.9142 22.5 17.9142C22.6326 17.9142 22.7639 17.9406 22.8862 17.9918C23.0085 18.043 23.1195 18.118 23.2125 18.2125L28.5 23.5" stroke="#232E52" stroke-width="2" stroke-linecap="round" stroke-linejoin="round"/>
<path d="M20 14.5C20.8284 14.5 21.5 13.8284 21.5 13C21.5 12.1716 20.8284 11.5 20 11.5C19.1716 11.5 18.5 12.1716 18.5 13C18.5 13.8284 19.1716 14.5 20 14.5Z" fill="#232E52"/>
</svg>
