<svg width="33" height="33" viewBox="0 0 33 33" fill="none" xmlns="http://www.w3.org/2000/svg">
<path d="M14 18.5H5.5C5.23478 18.5 4.98043 18.3946 4.79289 18.2071C4.60536 18.0196 4.5 17.7652 4.5 17.5V9.5C4.5 9.23478 4.60536 8.98043 4.79289 8.79289C4.98043 8.60536 5.23478 8.5 5.5 8.5H13C13.2652 8.5 13.5196 8.60536 13.7071 8.79289C13.8946 8.98043 14 9.23478 14 9.5V20.5C14 21.8261 13.4732 23.0979 12.5355 24.0355C11.5979 24.9732 10.3261 25.5 9 25.5" stroke="#232E52" stroke-width="2" stroke-linecap="round" stroke-linejoin="round"/>
<path d="M28.5 18.5H20C19.7348 18.5 19.4804 18.3946 19.2929 18.2071C19.1054 18.0196 19 17.7652 19 17.5V9.5C19 9.23478 19.1054 8.98043 19.2929 8.79289C19.4804 8.60536 19.7348 8.5 20 8.5H27.5C27.7652 8.5 28.0196 8.60536 28.2071 8.79289C28.3946 8.98043 28.5 9.23478 28.5 9.5V20.5C28.5 21.8261 27.9732 23.0979 27.0355 24.0355C26.0979 24.9732 24.8261 25.5 23.5 25.5" stroke="#232E52" stroke-width="2" stroke-linecap="round" stroke-linejoin="round"/>
</svg>
